<svg xmlns="http://www.w3.org/2000/svg" width="1346.333" height="934" viewBox="0 0 1346.333 934">
  <g id="Grupo_84840" data-name="Grupo 84840" transform="translate(-127 -429)">
    <rect id="Rectángulo_48567" data-name="Rectángulo 48567" width="202" height="138" rx="30" transform="translate(1271.333 1022)" fill="#e0efaa"/>
    <path id="Trazado_183767" data-name="Trazado 183767" d="M42.35,0h248.3C314.039,0,333,27.982,333,62.5S314.039,125,290.65,125H42.35C18.961,125,0,97.018,0,62.5S18.961,0,42.35,0Z" transform="translate(633.333 429)" fill="#ffd54f"/>
    <line id="Línea_246" data-name="Línea 246" y2="144.5" transform="translate(800 554)" fill="none" stroke="#bf8d48" stroke-width="3"/>
    <line id="Línea_269" data-name="Línea 269" y2="78" transform="translate(253.401 620.5)" fill="none" stroke="#bf8d48" stroke-width="3"/>
    <line id="Línea_270" data-name="Línea 270" y2="78" transform="translate(526.7 620.5)" fill="none" stroke="#bf8d48" stroke-width="3"/>
    <line id="Línea_271" data-name="Línea 271" y2="78" transform="translate(1073.3 620.5)" fill="none" stroke="#bf8d48" stroke-width="3"/>
    <line id="Línea_272" data-name="Línea 272" y2="78" transform="translate(1346.599 620.5)" fill="none" stroke="#bf8d48" stroke-width="3"/>
    <line id="Línea_244" data-name="Línea 244" x2="1093" transform="translate(253.833 620)" fill="none" stroke="#bf8d48" stroke-width="3"/>
    <line id="Línea_261" data-name="Línea 261" x2="21.5" transform="translate(152.333 898)" fill="none" stroke="#bf8d48" stroke-width="3"/>
    <line id="Línea_273" data-name="Línea 273" x2="21.5" transform="translate(432.333 898)" fill="none" stroke="#bf8d48" stroke-width="3"/>
    <line id="Línea_276" data-name="Línea 276" x2="21.5" transform="translate(705.632 898)" fill="none" stroke="#bf8d48" stroke-width="3"/>
    <line id="Línea_279" data-name="Línea 279" x2="21.5" transform="translate(978.932 898)" fill="none" stroke="#bf8d48" stroke-width="3"/>
    <line id="Línea_282" data-name="Línea 282" x2="21.5" transform="translate(1252.231 898)" fill="none" stroke="#bf8d48" stroke-width="3"/>
    <line id="Línea_262" data-name="Línea 262" x2="21.5" transform="translate(152.333 975.5)" fill="none" stroke="#bf8d48" stroke-width="3"/>
    <line id="Línea_274" data-name="Línea 274" x2="21.5" transform="translate(432.333 975.5)" fill="none" stroke="#bf8d48" stroke-width="3"/>
    <line id="Línea_277" data-name="Línea 277" x2="21.5" transform="translate(705.632 975.5)" fill="none" stroke="#bf8d48" stroke-width="3"/>
    <line id="Línea_280" data-name="Línea 280" x2="21.5" transform="translate(978.932 1021.5)" fill="none" stroke="#bf8d48" stroke-width="3"/>
    <line id="Línea_283" data-name="Línea 283" x2="21.5" transform="translate(1252.231 977.5)" fill="none" stroke="#bf8d48" stroke-width="3"/>
    <line id="Línea_285" data-name="Línea 285" x2="21.5" transform="translate(1252.231 1091)" fill="none" stroke="#bf8d48" stroke-width="3"/>
    <line id="Línea_263" data-name="Línea 263" x2="21.5" transform="translate(152.333 1089)" fill="none" stroke="#bf8d48" stroke-width="3"/>
    <line id="Línea_264" data-name="Línea 264" x2="21.5" transform="translate(152.333 1333.5)" fill="none" stroke="#bf8d48" stroke-width="3"/>
    <line id="Línea_265" data-name="Línea 265" x2="21.5" transform="translate(152.333 1265.5)" fill="none" stroke="#bf8d48" stroke-width="3"/>
    <line id="Línea_266" data-name="Línea 266" x2="21" transform="translate(152.833 1197)" fill="none" stroke="#bf8d48" stroke-width="3"/>
    <line id="Línea_251" data-name="Línea 251" y2="558" transform="translate(152.333 774)" fill="none" stroke="#bf8d48" stroke-width="3"/>
    <line id="Línea_275" data-name="Línea 275" y2="202" transform="translate(432.333 774)" fill="none" stroke="#bf8d48" stroke-width="3"/>
    <line id="Línea_278" data-name="Línea 278" y2="202" transform="translate(705.632 774)" fill="none" stroke="#bf8d48" stroke-width="3"/>
    <line id="Línea_281" data-name="Línea 281" y2="247.5" transform="translate(978.932 774)" fill="none" stroke="#bf8d48" stroke-width="3"/>
    <line id="Línea_284" data-name="Línea 284" y2="317.5" transform="translate(1252.231 774)" fill="none" stroke="#bf8d48" stroke-width="3"/>
    <path id="Trazado_183767-2" data-name="Trazado 183767" d="M29.124,0H199.876C215.961,0,229,16.118,229,36s-13.039,36-29.124,36H29.124C13.039,72,0,55.882,0,36S13.039,0,29.124,0Z" transform="translate(171.333 860)" fill="#e0efaa"/>
    <path id="Trazado_183767-3" data-name="Trazado 183767" d="M25.66,0H176.108c14.172,0,25.66,16.118,25.66,36s-11.489,36-25.66,36H25.66C11.489,72,0,55.882,0,36S11.489,0,25.66,0Z" transform="translate(451.333 860)" fill="#e0efaa"/>
    <path id="Trazado_183767-4" data-name="Trazado 183767" d="M25.66,0H176.108c14.172,0,25.66,16.118,25.66,36s-11.489,36-25.66,36H25.66C11.489,72,0,55.882,0,36S11.489,0,25.66,0Z" transform="translate(724.632 860)" fill="#e0efaa"/>
    <path id="Trazado_183767-5" data-name="Trazado 183767" d="M25.66,0H176.108c14.172,0,25.66,16.118,25.66,36s-11.489,36-25.66,36H25.66C11.489,72,0,55.882,0,36S11.489,0,25.66,0Z" transform="translate(997.932 860)" fill="#e0efaa"/>
    <path id="Trazado_183767-6" data-name="Trazado 183767" d="M25.66,0H176.108c14.172,0,25.66,16.118,25.66,36s-11.489,36-25.66,36H25.66C11.489,72,0,55.882,0,36S11.489,0,25.66,0Z" transform="translate(1271.231 860)" fill="#e0efaa"/>
    <path id="Trazado_183767-7" data-name="Trazado 183767" d="M29.124,0H199.876C215.961,0,229,16.118,229,36s-13.039,36-29.124,36H29.124C13.039,72,0,55.882,0,36S13.039,0,29.124,0Z" transform="translate(171.333 940)" fill="#e0efaa"/>
    <path id="Trazado_183767-8" data-name="Trazado 183767" d="M25.66,0H176.108c14.172,0,25.66,16.118,25.66,36s-11.489,36-25.66,36H25.66C11.489,72,0,55.882,0,36S11.489,0,25.66,0Z" transform="translate(451.333 940)" fill="#e0efaa"/>
    <path id="Trazado_183767-9" data-name="Trazado 183767" d="M25.66,0H176.108c14.172,0,25.66,16.118,25.66,36s-11.489,36-25.66,36H25.66C11.489,72,0,55.882,0,36S11.489,0,25.66,0Z" transform="translate(724.632 940)" fill="#e0efaa"/>
    <path id="Trazado_183767-10" data-name="Trazado 183767" d="M25.66,0H176.108c14.172,0,25.66,16.118,25.66,36s-11.489,36-25.66,36H25.66C11.489,72,0,55.882,0,36S11.489,0,25.66,0Z" transform="translate(997.932 986)" fill="#e0efaa"/>
    <path id="Trazado_183767-11" data-name="Trazado 183767" d="M25.66,0H176.108c14.172,0,25.66,16.118,25.66,36s-11.489,36-25.66,36H25.66C11.489,72,0,55.882,0,36S11.489,0,25.66,0Z" transform="translate(1271.231 942)" fill="#e0efaa"/>
    <path id="Trazado_183767-12" data-name="Trazado 183767" d="M29.124,0H199.876A29.314,29.314,0,0,1,229,29.5,29.314,29.314,0,0,1,199.876,59H29.124A29.314,29.314,0,0,1,0,29.5,29.314,29.314,0,0,1,29.124,0Z" transform="translate(171.333 1304)" fill="#e0efaa"/>
    <path id="Trazado_183767-13" data-name="Trazado 183767" d="M29.124,0H199.876A29.314,29.314,0,0,1,229,29.5,29.314,29.314,0,0,1,199.876,59H29.124A29.314,29.314,0,0,1,0,29.5,29.314,29.314,0,0,1,29.124,0Z" transform="translate(171.333 1236)" fill="#e0efaa"/>
    <path id="Trazado_183767-14" data-name="Trazado 183767" d="M29.124,0H199.876A29.314,29.314,0,0,1,229,29.5,29.314,29.314,0,0,1,199.876,59H29.124A29.314,29.314,0,0,1,0,29.5,29.314,29.314,0,0,1,29.124,0Z" transform="translate(171.333 1167)" fill="#e0efaa"/>
    <text id="Diagnóstico_sistema_de_producción_porcina" data-name="Diagnóstico sistema de 
producción porcina" transform="translate(198.333 889)" fill="#12263f" font-size="16" font-family="Roboto-Bold, Roboto" font-weight="700"><tspan x="0" y="0">Diagnóstico sistema de </tspan><tspan x="0" y="24">producción porcina</tspan></text>
    <text id="Tipos_y_características_" data-name="Tipos y 
características
" transform="translate(478.333 889)" fill="#12263f" font-size="16" font-family="Roboto-Bold, Roboto" font-weight="700"><tspan x="0" y="0">Tipos y </tspan><tspan x="0" y="24">características</tspan><tspan x="0" y="48"></tspan></text>
    <text id="Naturales" transform="translate(751.632 900)" fill="#12263f" font-size="16" font-family="Roboto-Bold, Roboto" font-weight="700"><tspan x="0" y="0">Naturales</tspan></text>
    <text id="Riesgos_laborales" data-name="Riesgos laborales" transform="translate(1024.932 900)" fill="#12263f" font-size="16" font-family="Roboto-Bold, Roboto" font-weight="700"><tspan x="0" y="0">Riesgos laborales</tspan></text>
    <text id="Normativa_beneficios_importancia" data-name="Normativa, beneficios, 
importancia" transform="translate(1298.231 891)" fill="#12263f" font-size="16" font-family="Roboto-Bold, Roboto" font-weight="700"><tspan x="0" y="0">Normativa, beneficios, </tspan><tspan x="0" y="24">importancia</tspan></text>
    <text id="Caracterización_del_sistema_productivo" data-name="Caracterización del 
sistema productivo" transform="translate(198.333 969)" fill="#12263f" font-size="16" font-family="Roboto-Bold, Roboto" font-weight="700"><tspan x="0" y="0">Caracterización del </tspan><tspan x="0" y="24">sistema productivo</tspan></text>
    <text id="Diagnóstico_para_implementación_" data-name="Diagnóstico para
 implementación
" transform="translate(478.333 969)" fill="#12263f" font-size="16" font-family="Roboto-Bold, Roboto" font-weight="700"><tspan x="0" y="0">Diagnóstico para</tspan><tspan x="0" y="24" xml:space="preserve"> implementación</tspan><tspan x="0" y="48"></tspan></text>
    <text id="Aplicados_en_el_sistema_productivo" data-name="Aplicados en el 
sistema productivo" transform="translate(751.632 969)" fill="#12263f" font-size="16" font-family="Roboto-Bold, Roboto" font-weight="700"><tspan x="0" y="0">Aplicados en el </tspan><tspan x="0" y="24">sistema productivo</tspan></text>
    <text id="Elementos_de_protección_personal_" data-name="Elementos de 
protección personal
" transform="translate(1024.932 1015)" fill="#12263f" font-size="16" font-family="Roboto-Bold, Roboto" font-weight="700"><tspan x="0" y="0">Elementos de </tspan><tspan x="0" y="24">protección personal</tspan><tspan x="0" y="48"></tspan></text>
    <text id="Criterios_de_cumplimiento_" data-name="Criterios de
cumplimiento
" transform="translate(1298.231 971)" fill="#12263f" font-size="16" font-family="Roboto-Bold, Roboto" font-weight="700"><tspan x="0" y="0">Criterios de</tspan><tspan x="0" y="24">cumplimiento</tspan><tspan x="0" y="48"></tspan></text>
    <text id="Fundamentos_de_inocuidad_en_la_producción_primaria_pecuaria_e_IVC" data-name="Fundamentos de
inocuidad en la 
producción primaria 
pecuaria e IVC" transform="translate(1298.231 1050.5)" fill="#12263f" font-size="16" font-family="Roboto-Bold, Roboto" font-weight="700"><tspan x="0" y="0">Fundamentos de</tspan><tspan x="0" y="24">inocuidad en la </tspan><tspan x="0" y="48">producción primaria </tspan><tspan x="0" y="72">pecuaria e IVC</tspan></text>
    <text id="Identificar_soluciones_" data-name="Identificar soluciones " transform="translate(197.333 1337)" fill="#12263f" font-size="16" font-family="Roboto-Bold, Roboto" font-weight="700"><tspan x="0" y="0">Identificar soluciones </tspan></text>
    <text id="Responsables" transform="translate(197.333 1269)" fill="#12263f" font-size="16" font-family="Roboto-Bold, Roboto" font-weight="700"><tspan x="0" y="0">Responsables</tspan></text>
    <path id="Trazado_183767-15" data-name="Trazado 183767" d="M32.151,0h188.5C238.408,0,252.8,25.3,252.8,56.5S238.408,113,220.651,113H32.151C14.394,113,0,87.7,0,56.5S14.394,0,32.151,0Z" transform="translate(127 669)" fill="#b8ff9a"/>
    <text id="Implementación_de_las_BPG_en_la_producción_porcina_" data-name="Implementación de
las BPG en la 
producción porcina
" transform="translate(253.333 708)" font-size="18" font-family="Roboto-Bold, Roboto" font-weight="700"><tspan x="-77.682" y="0">Implementación de</tspan><tspan x="-55.6" y="24">las BPG en la </tspan><tspan x="-77.832" y="48">producción porcina</tspan><tspan x="0" y="72"></tspan></text>
    <text id="ejecutando_" data-name="ejecutando
" transform="translate(219.333 833)" font-size="18" font-family="Roboto-Bold, Roboto" font-weight="700"><tspan x="-44.864" y="0">ejecutando</tspan><tspan x="0" y="24"></tspan></text>
    <text id="con_" data-name="con
" transform="translate(467.333 833)" font-size="18" font-family="Roboto-Bold, Roboto" font-weight="700"><tspan x="-14.823" y="0">con</tspan><tspan x="0" y="24"></tspan></text>
    <text id="los_cuales_son_" data-name="los cuales son
" transform="translate(782.632 833)" font-size="18" font-family="Roboto-Bold, Roboto" font-weight="700"><tspan x="-57.775" y="0">los cuales son</tspan><tspan x="0" y="24"></tspan></text>
    <text id="previniendo_" data-name="previniendo
" transform="translate(1045.932 833)" font-size="18" font-family="Roboto-Bold, Roboto" font-weight="700"><tspan x="-47.5" y="0">previniendo</tspan><tspan x="0" y="24"></tspan></text>
    <text id="ejecutando_2" data-name="ejecutando
" transform="translate(1316.231 833)" font-size="18" font-family="Roboto-Bold, Roboto" font-weight="700"><tspan x="-44.864" y="0">ejecutando</tspan><tspan x="0" y="24"></tspan></text>
    <text id="utilizando_" data-name="utilizando
" transform="translate(1040.432 963)" font-size="18" font-family="Roboto-Bold, Roboto" font-weight="700"><tspan x="-39.841" y="0">utilizando</tspan><tspan x="0" y="24"></tspan></text>
    <text id="En_la_cual_incluye" data-name="En la cual incluye" transform="translate(887.333 592)" font-size="18" font-family="Roboto-Bold, Roboto" font-weight="700"><tspan x="-69.847" y="0">En la cual incluye</tspan></text>
    <rect id="Rectángulo_48566" data-name="Rectángulo 48566" width="229" height="138" rx="42" transform="translate(171.333 1020)" fill="#e0efaa"/>
    <text id="Identificación_de_falencias_de_la_unidad_productiva_frente_a_la_implementación_de_BPG" data-name="Identificación de falencias
 de la unidad productiva
 frente a la implementación
 de BPG" transform="translate(189.333 1061)" fill="#12263f" font-size="16" font-family="Roboto-Bold, Roboto" font-weight="700"><tspan x="0" y="0">Identificación de falencias</tspan><tspan x="0" y="24" xml:space="preserve"> de la unidad productiva</tspan><tspan x="0" y="48" xml:space="preserve"> frente a la implementación</tspan><tspan x="0" y="72" xml:space="preserve"> de BPG</tspan></text>
    <path id="Trazado_183767-16" data-name="Trazado 183767" d="M32.151,0h188.5C238.408,0,252.8,25.3,252.8,56.5S238.408,113,220.651,113H32.151C14.394,113,0,87.7,0,56.5S14.394,0,32.151,0Z" transform="translate(400.3 669)" fill="#b8ff9a"/>
    <text id="Unidad_productiva_porcina" data-name="Unidad productiva porcina" transform="translate(526.333 731)" font-size="18" font-family="Roboto-Bold, Roboto" font-weight="700"><tspan x="-105.917" y="0">Unidad productiva porcina</tspan></text>
    <path id="Trazado_183767-17" data-name="Trazado 183767" d="M32.151,0h188.5C238.408,0,252.8,25.3,252.8,56.5S238.408,113,220.651,113H32.151C14.394,113,0,87.7,0,56.5S14.394,0,32.151,0Z" transform="translate(673.599 669)" fill="#b8ff9a"/>
    <text id="Recursos_para_la_implementación_de_BPG_" data-name="Recursos para la 
implementación de BPG
" transform="translate(800.333 715)" font-size="18" font-family="Roboto-Bold, Roboto" font-weight="700"><tspan x="-69.768" y="0">Recursos para la </tspan><tspan x="-97.365" y="24">implementación de BPG</tspan><tspan x="0" y="48"></tspan></text>
    <path id="Trazado_183767-18" data-name="Trazado 183767" d="M32.151,0h188.5C238.408,0,252.8,25.3,252.8,56.5S238.408,113,220.651,113H32.151C14.394,113,0,87.7,0,56.5S14.394,0,32.151,0Z" transform="translate(946.898 669)" fill="#b8ff9a"/>
    <text id="Seguridad_y_salud_en_el_trabajo_" data-name="Seguridad y 
salud en el trabajo
" transform="translate(1073.333 715)" font-size="18" font-family="Roboto-Bold, Roboto" font-weight="700"><tspan x="-50.208" y="0">Seguridad y </tspan><tspan x="-74.162" y="24">salud en el trabajo</tspan><tspan x="0" y="48"></tspan></text>
    <path id="Trazado_183767-19" data-name="Trazado 183767" d="M32.151,0h188.5C238.408,0,252.8,25.3,252.8,56.5S238.408,113,220.651,113H32.151C14.394,113,0,87.7,0,56.5S14.394,0,32.151,0Z" transform="translate(1220.198 669)" fill="#b8ff9a"/>
    <text id="Buenas_prácticas_ganaderas_en_la_producción_porcina_" data-name="Buenas prácticas ganaderas 
en la producción porcina
" transform="translate(1347.333 719)" font-size="18" font-family="Roboto-Bold, Roboto" font-weight="700"><tspan x="-116.539" y="0">Buenas prácticas ganaderas </tspan><tspan x="-99.431" y="24">en la producción porcina</tspan><tspan x="0" y="48"></tspan></text>
    <text id="Conceptualización_en_BPG_en_la_producción_porcina" data-name="Conceptualización en 
BPG en la producción porcina" transform="translate(798.333 485)" font-size="18" font-family="Roboto-Bold, Roboto" font-weight="700"><tspan x="-89.319" y="0">Conceptualización en </tspan><tspan x="-119.351" y="24">BPG en la producción porcina</tspan></text>
    <text id="Recursos" transform="translate(197.333 1200)" fill="#12263f" font-size="16" font-family="Roboto-Bold, Roboto" font-weight="700"><tspan x="0" y="0">Recursos</tspan></text>
  </g>
</svg>
