<svg xmlns="http://www.w3.org/2000/svg" xmlns:xlink="http://www.w3.org/1999/xlink" width="540.515" height="389.242" viewBox="0 0 540.515 389.242">
  <defs>
    <clipPath id="clip-path">
      <rect id="BG" width="540.515" height="389.242" transform="translate(0 0)" fill="#e8e8e8" opacity="0.949"/>
    </clipPath>
    <clipPath id="clip-path-2">
      <rect id="Rectángulo_46703" data-name="Rectángulo 46703" width="485.984" height="352.073" fill="none"/>
    </clipPath>
    <clipPath id="clip-path-4">
      <rect id="Rectángulo_46674" data-name="Rectángulo 46674" width="459.42" height="331.522" fill="#fce28e"/>
    </clipPath>
    <clipPath id="clip-path-9">
      <rect id="Rectángulo_46690" data-name="Rectángulo 46690" width="288.258" height="285.751" fill="none"/>
    </clipPath>
    <clipPath id="clip-path-10">
      <path id="Trazado_115124" data-name="Trazado 115124" d="M172.784,73.967l26.062,48.266.242,2.414-80.363,33.062s4.586,34.751,5.068,33.785,48.506-28.959,65.4-39.818,33.3-16.651,35.476-19.79,1.931-8.205-4.826-15.2-38.855-45.127-38.855-45.127Z" transform="translate(-118.726 -71.554)" fill="#feeaa9"/>
    </clipPath>
    <clipPath id="clip-path-11">
      <rect id="Rectángulo_46691" data-name="Rectángulo 46691" width="93.157" height="97.907" fill="#feeaa9"/>
    </clipPath>
    <clipPath id="clip-path-13">
      <path id="Trazado_115139" data-name="Trazado 115139" d="M100.277,140.719C88.21,152.06,77.592,171.608,73.489,190.191s-9.653,75.778-9.653,90.74c0,11.013-.587,23.984-.9,30.068h59.708c10.365-4.026,20.553-11.156,24.26-19.581-3.805-19.664-8.5-47.362-8.5-64.3,0-28.476,7.482-44.646,4.1-63.952s-10.618-31.855-18.341-36.922c0,0-11.825,3.136-23.892,14.479" transform="translate(-62.94 -126.24)" fill="#fcc618"/>
    </clipPath>
    <clipPath id="clip-path-14">
      <rect id="Rectángulo_46693" data-name="Rectángulo 46693" width="84.156" height="188.285" fill="#fcc618"/>
    </clipPath>
    <clipPath id="clip-path-16">
      <path id="Trazado_115151" data-name="Trazado 115151" d="M161.384,61.635c-12.307,1.931-15.446,6.517-15.446,6.517s-17.376-.242-27.269,7.963-3.861,21.237-.724,25.822a72.191,72.191,0,0,0,8.928,9.895s.724,9.412,1.449,14S117.7,143.2,117.7,143.2l16.411,24.857L152.7,153.582s26.305-1.93,28.718-4.1,2.414-26.064,2.414-26.064L190.1,119.8s-5.793-25.1-7.24-30.648L181.414,83.6s8.446-2.9,6.516-11.342c-1.614-7.064-10.486-11.089-20.547-11.089a38.828,38.828,0,0,0-6,.47" transform="translate(-113.234 -61.165)" fill="#fcc618"/>
    </clipPath>
    <clipPath id="clip-path-19">
      <path id="Trazado_115165" data-name="Trazado 115165" d="M107.173,128.718s.964,1.931,9.17,13.516,16.651,27.994,16.651,27.994l11.1-14.237-24.132-36.683Z" transform="translate(-107.173 -119.307)" fill="#feeaa9"/>
    </clipPath>
    <clipPath id="clip-path-20">
      <rect id="Rectángulo_46699" data-name="Rectángulo 46699" width="19.491" height="18.388" fill="#feeaa9"/>
    </clipPath>
    <clipPath id="clip-path-22">
      <path id="Trazado_115172" data-name="Trazado 115172" d="M83.256,158.038c-7.962,14.239-.723,30.407,2.172,41.99s21.237,63.952,23.893,70.469,7.481,5.068,10.134,4.344,76.02-59.85,76.02-59.85l-5.793-13.032-56.954,29.2-12.307-39.1s-7-29.2-9.895-35.716c-1.593-3.583-7.273-7.021-13.386-7.021-5,0-10.3,2.3-13.884,8.71" transform="translate(-79.637 -149.328)" fill="#feeaa9"/>
    </clipPath>
    <clipPath id="clip-path-23">
      <rect id="Rectángulo_46701" data-name="Rectángulo 46701" width="102.461" height="126.171" fill="#feeaa9"/>
    </clipPath>
  </defs>
  <g id="Enmascarar_grupo_91" data-name="Enmascarar grupo 91" clip-path="url(#clip-path)">
    <g id="Grupo_80936" data-name="Grupo 80936" transform="translate(0 18.584)">
      <g id="Grupo_80935" data-name="Grupo 80935" clip-path="url(#clip-path-2)">
        <g id="Grupo_80882" data-name="Grupo 80882">
          <g id="Grupo_80881" data-name="Grupo 80881" clip-path="url(#clip-path-2)">
            <path id="Trazado_115019" data-name="Trazado 115019" d="M466.623,175.677c-4.244-33.8-14.87-66.522-27.628-89.94C408.331,29.45,322.9-8.205,258.464,1.533c-54.912,8.3-81.3,58.391-130.8,75.779-45.544,16-86.544,28.342-108.019,70.532-45.373,89.134,65.818,186.588,161.1,178.986,30.073-2.4,56.941-13.968,87.81-8.54,62.62,11.01,83.468,22.86,138.82.817,54.536-21.721,66.674-84.238,59.242-143.43" transform="translate(2.326 0)" fill="#c6ff00"/>
            <g id="Grupo_80880" data-name="Grupo 80880" transform="translate(11.511)" opacity="0.8">
              <g id="Grupo_80879" data-name="Grupo 80879">
                <g id="Grupo_80878" data-name="Grupo 80878" clip-path="url(#clip-path-4)">
                  <path id="Trazado_115020" data-name="Trazado 115020" d="M466.623,175.677c-4.244-33.8-14.87-66.522-27.628-89.94C408.331,29.45,322.9-8.205,258.464,1.533c-54.912,8.3-81.3,58.391-130.8,75.779-45.544,16-86.544,28.342-108.019,70.532-45.373,89.134,65.818,186.588,161.1,178.986,30.073-2.4,56.941-13.968,87.81-8.54,62.62,11.01,83.468,22.86,138.82.817,54.536-21.721,66.674-84.238,59.242-143.43" transform="translate(-9.184 0)" fill="#fce28e"/>
                </g>
              </g>
            </g>
          </g>
        </g>
        <path id="Trazado_115021" data-name="Trazado 115021" d="M156.59,180.591,210.049,300.28l235.8-14.329L286.124,180.591Z" transform="translate(39.664 45.743)" fill="#fff"/>
        <g id="Grupo_80884" data-name="Grupo 80884">
          <g id="Grupo_80883" data-name="Grupo 80883" clip-path="url(#clip-path-2)">
            <path id="Trazado_115022" data-name="Trazado 115022" d="M210.05,300.279,156.591,180.592H286.125L445.85,285.952" transform="translate(39.664 45.743)" fill="none" stroke="#263238" stroke-linecap="round" stroke-linejoin="round" stroke-width="0.75"/>
          </g>
        </g>
        <path id="Trazado_115023" data-name="Trazado 115023" d="M156.59,188.571l40.2,106.99,16.66,10.3L156.59,180.591Z" transform="translate(39.664 45.743)" fill="#263238"/>
        <g id="Grupo_80886" data-name="Grupo 80886">
          <g id="Grupo_80885" data-name="Grupo 80885" clip-path="url(#clip-path-2)">
            <path id="Trazado_115024" data-name="Trazado 115024" d="M196.791,295.56l-40.2-106.989v-7.98l56.862,125.269Z" transform="translate(39.664 45.743)" fill="none" stroke="#263238" stroke-linecap="round" stroke-linejoin="round" stroke-width="0.75"/>
          </g>
        </g>
        <path id="Trazado_115025" data-name="Trazado 115025" d="M225.743,184.533l55.095,64.594-66.873,15.578-38-72.192Z" transform="translate(44.572 46.741)" fill="#fff"/>
        <path id="Trazado_115026" data-name="Trazado 115026" d="M225.743,184.533l55.095,64.594-66.873,15.578-38-72.192Z" transform="translate(44.572 46.741)" fill="none" stroke="#263238" stroke-linecap="round" stroke-linejoin="round" stroke-width="0.75"/>
        <path id="Trazado_115027" data-name="Trazado 115027" d="M206.285,251.65v1.9l65.733-13.3,1.141-4.18Z" transform="translate(52.251 59.796)" fill="#263238"/>
        <path id="Trazado_115028" data-name="Trazado 115028" d="M206.285,251.65v1.9l65.733-13.3,1.141-4.18Z" transform="translate(52.251 59.796)" fill="none" stroke="#263238" stroke-linecap="round" stroke-linejoin="round" stroke-width="0.75"/>
        <path id="Trazado_115029" data-name="Trazado 115029" d="M214.028,203.453l2.809,4.153,7.18-1.94-2.994-4.061Z" transform="translate(54.212 51.066)" fill="#263238"/>
        <path id="Trazado_115030" data-name="Trazado 115030" d="M238.009,224.326,234.6,219.7l-8.144,2.2,3.185,4.71Z" transform="translate(57.36 55.65)" fill="#263238"/>
        <path id="Trazado_115031" data-name="Trazado 115031" d="M209.349,196.46l2.1,3.1,6.749-1.717-2.116-2.87Z" transform="translate(53.027 49.386)" fill="#263238"/>
        <path id="Trazado_115032" data-name="Trazado 115032" d="M219.715,211.909l3.864,5.715,7.876-2-4.257-5.774Z" transform="translate(55.653 53.153)" fill="#263238"/>
        <path id="Trazado_115033" data-name="Trazado 115033" d="M237.367,213.63l-6.751,1.718L234,219.936l6.876-1.861Z" transform="translate(58.414 54.111)" fill="#263238"/>
        <path id="Trazado_115034" data-name="Trazado 115034" d="M223.339,217.26l3.231,4.779,8.093-2.191-3.4-4.6Z" transform="translate(56.571 54.52)" fill="#263238"/>
        <path id="Trazado_115035" data-name="Trazado 115035" d="M203.259,197.793l2.08,3.359,6.475-1.648-2.119-3.133Z" transform="translate(51.485 49.74)" fill="#263238"/>
        <path id="Trazado_115036" data-name="Trazado 115036" d="M216.807,207.586l2.972,4.4,7.431-2.049-3.171-4.3Z" transform="translate(54.916 52.085)" fill="#263238"/>
        <path id="Trazado_115037" data-name="Trazado 115037" d="M211.562,199.783l2.414,3.569,6.943-1.834-2.557-3.467Z" transform="translate(53.588 50.166)" fill="#263238"/>
        <path id="Trazado_115038" data-name="Trazado 115038" d="M201.9,206.633l-2.111-3.81-7.679,1.955,2.147,3.873Z" transform="translate(48.661 51.374)" fill="#263238"/>
        <path id="Trazado_115039" data-name="Trazado 115039" d="M191.594,214.372l5.276-1.426-2.448-4.413-5.194,1.371Z" transform="translate(47.931 52.821)" fill="#263238"/>
        <path id="Trazado_115040" data-name="Trazado 115040" d="M201.438,194.828l1.646,2.657,6.386-1.411-1.714-2.537Z" transform="translate(51.023 49.022)" fill="#263238"/>
        <path id="Trazado_115041" data-name="Trazado 115041" d="M199.774,202.743l-2.032-3.668-7.808,1.727,2.159,3.9Z" transform="translate(48.109 50.425)" fill="#263238"/>
        <path id="Trazado_115042" data-name="Trazado 115042" d="M195.391,196.066l1.553,2.8,6.492-1.435-1.657-2.675Z" transform="translate(49.492 49.332)" fill="#263238"/>
        <path id="Trazado_115043" data-name="Trazado 115043" d="M187.126,205.881l5.087-1.295-2.179-3.93-5.08,1.123Z" transform="translate(46.848 50.825)" fill="#263238"/>
        <path id="Trazado_115044" data-name="Trazado 115044" d="M188.174,197.6l1.629,2.939,7.809-1.727-1.563-2.821Z" transform="translate(47.664 49.644)" fill="#263238"/>
        <path id="Trazado_115045" data-name="Trazado 115045" d="M207.74,205.1l2.633,4.25,6.892-1.862-2.812-4.16Z" transform="translate(52.62 51.501)" fill="#263238"/>
        <path id="Trazado_115046" data-name="Trazado 115046" d="M224.091,217.441l-3.85-5.694-7.18,1.98,3.49,5.632Z" transform="translate(53.967 53.635)" fill="#263238"/>
        <path id="Trazado_115047" data-name="Trazado 115047" d="M197.09,199.162,199.1,202.8l6.641-1.691-2.1-3.393Z" transform="translate(49.922 50.08)" fill="#263238"/>
        <path id="Trazado_115048" data-name="Trazado 115048" d="M199.383,217.4l-5.409,1.491,2.8,5.3,5.581-1.421Z" transform="translate(49.133 55.067)" fill="#263238"/>
        <path id="Trazado_115049" data-name="Trazado 115049" d="M210.342,209.317l2.782,4.492,7.133-1.966-2.975-4.4Z" transform="translate(53.279 52.544)" fill="#263238"/>
        <path id="Trazado_115050" data-name="Trazado 115050" d="M208.136,204.919l-2.285-3.688-6.7,1.7,2.1,3.8Z" transform="translate(50.444 50.971)" fill="#263238"/>
        <path id="Trazado_115051" data-name="Trazado 115051" d="M217.9,235.525l-7.659,1.953,2.735,4.934,7.686-1.9Z" transform="translate(53.254 59.658)" fill="#263238"/>
        <path id="Trazado_115052" data-name="Trazado 115052" d="M207.582,193.762l6.558-1.34-3.528-4.784-6.451,1.065Z" transform="translate(51.713 47.528)" fill="#263238"/>
        <path id="Trazado_115053" data-name="Trazado 115053" d="M196.262,196.319l-3.176-5.734-8.036,1.326,3.336,6.017Z" transform="translate(46.872 48.274)" fill="#263238"/>
        <path id="Trazado_115054" data-name="Trazado 115054" d="M204.342,211.05l-2.419-4.366-7.641,2.018,2.443,4.408Z" transform="translate(49.211 52.352)" fill="#263238"/>
        <path id="Trazado_115055" data-name="Trazado 115055" d="M220.119,223.845l-3.084-4.978-7.971,2.028,2.861,5.167Z" transform="translate(52.955 55.438)" fill="#263238"/>
        <path id="Trazado_115056" data-name="Trazado 115056" d="M217.142,219.19l-3.477-5.611-7.512,2.072,3.076,5.552Z" transform="translate(52.218 54.099)" fill="#263238"/>
        <path id="Trazado_115057" data-name="Trazado 115057" d="M227.178,221.885l-3.241-4.794-7.59,1.931,3.074,4.962Z" transform="translate(54.8 54.988)" fill="#263238"/>
        <path id="Trazado_115058" data-name="Trazado 115058" d="M210.861,209.239l-2.637-4.256-6.938,1.831,2.415,4.36Z" transform="translate(50.985 51.921)" fill="#263238"/>
        <path id="Trazado_115059" data-name="Trazado 115059" d="M205.421,201.331l2.28,3.678,6.663-1.76-2.42-3.578Z" transform="translate(52.032 50.576)" fill="#263238"/>
        <path id="Trazado_115060" data-name="Trazado 115060" d="M213.67,213.683l-2.786-4.5-7.218,1.95,2.549,4.6Z" transform="translate(51.588 52.986)" fill="#263238"/>
        <path id="Trazado_115061" data-name="Trazado 115061" d="M230.292,226.426l-3.187-4.714-7.8,2.112,2.972,4.8Z" transform="translate(55.548 56.159)" fill="#263238"/>
        <path id="Trazado_115062" data-name="Trazado 115062" d="M226.379,233.753l-3.39-5.472-8.57,2.346,3,5.412Z" transform="translate(54.311 57.823)" fill="#263238"/>
        <path id="Trazado_115063" data-name="Trazado 115063" d="M205.2,227.813l-2.943-5.306-5.6,1.425,2.869,5.418Z" transform="translate(49.81 56.36)" fill="#263238"/>
        <path id="Trazado_115064" data-name="Trazado 115064" d="M196.851,212.874l-5.3,1.433,2.489,4.7,5.387-1.485Z" transform="translate(48.519 53.92)" fill="#263238"/>
        <path id="Trazado_115065" data-name="Trazado 115065" d="M218.036,235.793,215.05,230.4l-7.592,2.079,2.92,5.266Z" transform="translate(52.548 58.359)" fill="#263238"/>
        <path id="Trazado_115066" data-name="Trazado 115066" d="M206.853,215.594l-2.552-4.607-7.616,2.058,2.573,4.643Z" transform="translate(49.82 53.442)" fill="#263238"/>
        <path id="Trazado_115067" data-name="Trazado 115067" d="M207.442,193.613l1.7,2.519,6.675-1.476-1.766-2.394Z" transform="translate(52.544 48.699)" fill="#263238"/>
        <path id="Trazado_115068" data-name="Trazado 115068" d="M184.839,201.542l5.057-1.118-1.639-2.957-5.031,1.029Z" transform="translate(46.41 50.018)" fill="#263238"/>
        <path id="Trazado_115069" data-name="Trazado 115069" d="M201.6,195.033l6.265-1.281-3.449-5.1-6.142,1.014Z" transform="translate(50.222 47.784)" fill="#263238"/>
        <path id="Trazado_115070" data-name="Trazado 115070" d="M195.567,196.324l6.327-1.293-3.353-5.411-6.127,1.011Z" transform="translate(48.738 48.03)" fill="#263238"/>
        <path id="Trazado_115071" data-name="Trazado 115071" d="M194.387,208.5l-2.152-3.883-5.11,1.3,2.089,3.948Z" transform="translate(47.398 51.828)" fill="#263238"/>
        <path id="Trazado_115072" data-name="Trazado 115072" d="M213.812,192.4l5.656-1.156-3.557-4.508-5.595.922Z" transform="translate(53.272 47.299)" fill="#263238"/>
        <path id="Trazado_115073" data-name="Trazado 115073" d="M188.46,197.86,185.1,191.8l-4.963.82,3.315,6.263Z" transform="translate(45.628 48.582)" fill="#263238"/>
        <path id="Trazado_115074" data-name="Trazado 115074" d="M210.546,237.316l-6.011,1.533,2.6,4.91,6.142-1.518Z" transform="translate(51.808 60.111)" fill="#263238"/>
        <path id="Trazado_115075" data-name="Trazado 115075" d="M233.856,231.5l-8.469,2.159,3.093,4.993,8.749-2.163Z" transform="translate(57.09 58.638)" fill="#263238"/>
        <path id="Trazado_115076" data-name="Trazado 115076" d="M226.287,233.458l-9.021,2.3,2.766,4.993,9.343-2.31Z" transform="translate(55.032 59.134)" fill="#263238"/>
        <path id="Trazado_115077" data-name="Trazado 115077" d="M241.937,229.458l-8.856,2.258,3.379,5,9.158-2.263Z" transform="translate(59.038 58.121)" fill="#263238"/>
        <path id="Trazado_115078" data-name="Trazado 115078" d="M248.614,227.686,241.1,229.6l3.687,5,7.77-1.921Z" transform="translate(61.069 57.672)" fill="#263238"/>
        <path id="Trazado_115079" data-name="Trazado 115079" d="M207.73,232.306l-5.822,1.594,2.743,5.181,5.988-1.527Z" transform="translate(51.143 58.842)" fill="#263238"/>
        <path id="Trazado_115080" data-name="Trazado 115080" d="M223.026,228.446l-2.974-4.8-8.252,2.233,2.713,4.9Z" transform="translate(53.648 56.648)" fill="#263238"/>
        <path id="Trazado_115081" data-name="Trazado 115081" d="M233.992,231.82l-3.754-5.552-8.067,2.21,3.4,5.489Z" transform="translate(56.275 57.313)" fill="#263238"/>
        <path id="Trazado_115082" data-name="Trazado 115082" d="M215.148,230.572l-2.715-4.9-7.606,2.059,2.727,4.92Z" transform="translate(51.882 57.162)" fill="#263238"/>
        <path id="Trazado_115083" data-name="Trazado 115083" d="M202,234.07l5.8-1.588-2.73-4.923-5.7,1.543Z" transform="translate(50.501 57.64)" fill="#263238"/>
        <path id="Trazado_115084" data-name="Trazado 115084" d="M209.85,221.013l-3.064-5.532-7.594,2.094,2.988,5.389Z" transform="translate(50.455 54.58)" fill="#263238"/>
        <path id="Trazado_115085" data-name="Trazado 115085" d="M242.105,229.806l-4.151-5.63-8.42,2.3,3.766,5.57Z" transform="translate(58.14 56.783)" fill="#263238"/>
        <path id="Trazado_115086" data-name="Trazado 115086" d="M212.573,225.9l-2.871-5.184-7.669,1.951,2.933,5.291Z" transform="translate(51.174 55.907)" fill="#263238"/>
        <path id="Trazado_115087" data-name="Trazado 115087" d="M226.624,209.942l4.274,5.8,6.708-1.707-4.611-5.845Z" transform="translate(57.403 52.732)" fill="#263238"/>
        <path id="Trazado_115088" data-name="Trazado 115088" d="M220.489,201.567,226.425,200l-2.661-3.373-5.824,1.483Z" transform="translate(55.203 49.805)" fill="#263238"/>
        <path id="Trazado_115089" data-name="Trazado 115089" d="M215.689,195.017l2.09,2.835,5.781-1.47-2.085-2.644Z" transform="translate(54.633 49.073)" fill="#263238"/>
        <path id="Trazado_115090" data-name="Trazado 115090" d="M248.831,228.057l-4.5-5.7-7.143,1.955,4.165,5.647Z" transform="translate(60.08 56.323)" fill="#263238"/>
        <path id="Trazado_115091" data-name="Trazado 115091" d="M220.555,201.675l2.989,4.054,6.126-1.657-3.138-3.975Z" transform="translate(55.866 50.684)" fill="#263238"/>
        <path id="Trazado_115092" data-name="Trazado 115092" d="M233.9,219.826l3.408,4.621,7.1-1.944-3.589-4.549Z" transform="translate(59.245 55.207)" fill="#263238"/>
        <path id="Trazado_115093" data-name="Trazado 115093" d="M215.453,194.673l5.741-1.27-1.793-2.272-5.7,1.166Z" transform="translate(54.129 48.413)" fill="#263238"/>
        <path id="Trazado_115094" data-name="Trazado 115094" d="M226.686,210.009l6.328-1.745-3.327-4.219-6.167,1.668Z" transform="translate(56.616 51.684)" fill="#263238"/>
        <g id="Grupo_80888" data-name="Grupo 80888">
          <g id="Grupo_80887" data-name="Grupo 80887" clip-path="url(#clip-path-2)">
            <path id="Trazado_115095" data-name="Trazado 115095" d="M270.838,190.293v10.259a20.18,20.18,0,0,1-3.42,2.659c-1.9,1.139-17.477,3.8-17.477,3.8L269.7,228.669s18.1-1.969,23.178-3.419c5.319-1.52,4.18-20.9,4.18-20.9Z" transform="translate(63.309 48.2)" fill="#fff"/>
            <path id="Trazado_115096" data-name="Trazado 115096" d="M270.838,190.293v10.259a20.18,20.18,0,0,1-3.42,2.659c-1.9,1.139-17.477,3.8-17.477,3.8L269.7,228.669s18.1-1.969,23.178-3.419c5.319-1.52,4.18-20.9,4.18-20.9Z" transform="translate(63.309 48.2)" fill="none" stroke="#263238" stroke-linecap="round" stroke-linejoin="round" stroke-width="0.75"/>
            <path id="Trazado_115097" data-name="Trazado 115097" d="M266.763,190.293v10.259s-.279.276-.732.672l23.1,23.893c4.939-2.216,3.853-20.766,3.853-20.766Z" transform="translate(67.384 48.2)" fill="#263238"/>
            <path id="Trazado_115098" data-name="Trazado 115098" d="M266.763,190.293v10.259s-.279.276-.732.672l23.1,23.893c4.939-2.216,3.853-20.766,3.853-20.766Z" transform="translate(67.384 48.2)" fill="none" stroke="#263238" stroke-linecap="round" stroke-linejoin="round" stroke-width="0.75"/>
            <path id="Trazado_115099" data-name="Trazado 115099" d="M238.724,85.7V194.368l82.832,65.353V91.78Z" transform="translate(60.468 21.707)" fill="#fff"/>
            <path id="Trazado_115100" data-name="Trazado 115100" d="M238.724,85.7V194.368l82.832,65.353V91.78Z" transform="translate(60.468 21.707)" fill="none" stroke="#263238" stroke-linecap="round" stroke-linejoin="round" stroke-width="0.75"/>
            <path id="Trazado_115101" data-name="Trazado 115101" d="M243.271,90.247v91.571L312.8,224.754V96.327Z" transform="translate(61.62 22.859)" fill="#c6ff00"/>
            <path id="Trazado_115102" data-name="Trazado 115102" d="M243.271,90.247v91.571L312.8,224.754V96.327Z" transform="translate(61.62 22.859)" fill="none" stroke="#263238" stroke-linecap="round" stroke-linejoin="round" stroke-width="0.75"/>
            <rect id="Rectángulo_46678" data-name="Rectángulo 46678" width="8.359" height="167.983" transform="translate(382.022 113.486)" fill="#263238"/>
            <rect id="Rectángulo_46679" data-name="Rectángulo 46679" width="8.359" height="167.983" transform="translate(382.022 113.486)" fill="none" stroke="#263238" stroke-linecap="round" stroke-linejoin="round" stroke-width="0.75"/>
            <path id="Trazado_115103" data-name="Trazado 115103" d="M246.909,94.795l.38,81.691,58.134,33.057V108.383l-39.9-6.037L262.867,96.7Z" transform="translate(62.541 24.011)" fill="#fff"/>
            <path id="Trazado_115104" data-name="Trazado 115104" d="M246.909,94.795l.38,81.691,58.134,33.057V108.383l-39.9-6.037L262.867,96.7Z" transform="translate(62.541 24.011)" fill="none" stroke="#263238" stroke-linecap="round" stroke-linejoin="round" stroke-width="0.75"/>
            <path id="Trazado_115105" data-name="Trazado 115105" d="M249.941,102.677V172.21l51.295,27.357V111.8Z" transform="translate(63.309 26.008)" fill="#c6ff00"/>
            <path id="Trazado_115106" data-name="Trazado 115106" d="M249.941,102.677V172.21l51.295,27.357V111.8Z" transform="translate(63.309 26.008)" fill="none" stroke="#263238" stroke-linecap="round" stroke-linejoin="round" stroke-width="0.75"/>
            <path id="Trazado_115107" data-name="Trazado 115107" d="M286.405,149.744c0-10.073-6.464-19.847-14.438-21.832s-14.439,4.572-14.439,14.645,6.464,19.847,14.439,21.832,14.438-4.572,14.438-14.645" transform="translate(65.231 32.31)" fill="#263238"/>
            <path id="Trazado_115108" data-name="Trazado 115108" d="M272.337,145.875l4.873-5.4a2.758,2.758,0,0,0-.093-3.245c-.727-1.038-1.871-1.268-2.55-.518l-4.694,5.206-4.695-7.544c-.678-1.089-1.821-1.426-2.55-.752a2.655,2.655,0,0,0-.093,3.2l4.873,7.829-4.873,5.4a2.758,2.758,0,0,0,.093,3.245,2.208,2.208,0,0,0,1.228.916,1.3,1.3,0,0,0,1.322-.4l4.695-5.206,4.694,7.544a2.279,2.279,0,0,0,1.322,1.055,1.29,1.29,0,0,0,1.228-.3,2.655,2.655,0,0,0,.093-3.2Z" transform="translate(66.376 33.757)" fill="#fff"/>
            <line id="Línea_235" data-name="Línea 235" x2="28.727" y2="8.438" transform="translate(322.369 152.243)" fill="none" stroke="#263238" stroke-linecap="round" stroke-linejoin="round" stroke-width="0.75"/>
            <line id="Línea_236" data-name="Línea 236" x2="37.232" y2="10.391" transform="translate(321.229 144.263)" fill="none" stroke="#263238" stroke-linecap="round" stroke-linejoin="round" stroke-width="0.75"/>
            <path id="Trazado_115109" data-name="Trazado 115109" d="M282.453,257.97s-18.153,1.681-24.877,7.06-1.681,8.067,4.707,9.748,34.961-1.008,38.658-4.706,0-12.774-18.489-12.1" transform="translate(64.436 65.334)" fill="#fff"/>
            <path id="Trazado_115110" data-name="Trazado 115110" d="M282.453,257.97s-18.153,1.681-24.877,7.06-1.681,8.067,4.707,9.748,34.961-1.008,38.658-4.706S300.941,257.3,282.453,257.97Z" transform="translate(64.436 65.334)" fill="none" stroke="#263238" stroke-linecap="round" stroke-linejoin="round" stroke-width="0.75"/>
            <path id="Trazado_115111" data-name="Trazado 115111" d="M299.048,268.165a4.363,4.363,0,0,0,1.26-2.654c-8.144-.4-18.771,1.954-28.489,5.008a101.811,101.811,0,0,1-9.956,2.621c8.442,1.067,33.722-1.512,37.185-4.974" transform="translate(66.329 67.241)" fill="#263238"/>
            <path id="Trazado_115112" data-name="Trazado 115112" d="M299.048,268.165a4.363,4.363,0,0,0,1.26-2.654c-8.144-.4-18.771,1.954-28.489,5.008a101.811,101.811,0,0,1-9.956,2.621C270.305,274.206,295.585,271.627,299.048,268.165Z" transform="translate(66.329 67.241)" fill="none" stroke="#263238" stroke-linecap="round" stroke-linejoin="round" stroke-width="0.75"/>
            <line id="Línea_237" data-name="Línea 237" x2="13.265" y2="6.898" transform="translate(282.513 123.852)" fill="none" stroke="#263238" stroke-linecap="round" stroke-linejoin="round" stroke-width="1"/>
            <line id="Línea_238" data-name="Línea 238" x2="3.953" y2="2.055" transform="translate(274.889 119.888)" fill="none" stroke="#263238" stroke-linecap="round" stroke-linejoin="round" stroke-width="1"/>
            <line id="Línea_239" data-name="Línea 239" x2="4.496" y2="0.519" transform="translate(285.433 158.639)" fill="none" stroke="#263238" stroke-linecap="round" stroke-linejoin="round" stroke-width="1"/>
            <line id="Línea_240" data-name="Línea 240" x2="12.133" y2="1.4" transform="translate(268.205 156.651)" fill="none" stroke="#263238" stroke-linecap="round" stroke-linejoin="round" stroke-width="1"/>
            <line id="Línea_241" data-name="Línea 241" x1="15.04" y2="4.177" transform="translate(273.218 190.908)" fill="none" stroke="#263238" stroke-linecap="round" stroke-linejoin="round" stroke-width="1"/>
          </g>
        </g>
        <g id="Grupo_80890" data-name="Grupo 80890">
          <g id="Grupo_80889" data-name="Grupo 80889" clip-path="url(#clip-path-2)">
            <path id="Trazado_115113" data-name="Trazado 115113" d="M221.785,5.687a35.971,35.971,0,1,0,35.971,35.971A35.971,35.971,0,0,0,221.785,5.687m0,64.876a28.905,28.905,0,1,1,28.9-28.9,28.9,28.9,0,0,1-28.9,28.9" transform="translate(47.066 1.44)" fill="#263238"/>
            <path id="Trazado_115114" data-name="Trazado 115114" d="M217.6,34.907a2.569,2.569,0,1,1-2.569-2.569,2.57,2.57,0,0,1,2.569,2.569" transform="translate(53.816 8.191)" fill="#263238"/>
            <path id="Trazado_115115" data-name="Trazado 115115" d="M207.638,47.433l8.619-13.044L230.8,46.425" transform="translate(52.594 8.71)" fill="none" stroke="#263238" stroke-linecap="round" stroke-linejoin="round" stroke-width="1"/>
          </g>
        </g>
        <path id="Trazado_115116" data-name="Trazado 115116" d="M63.091,64.718,58.767,52.9l2.306,2.6V51.457l4.9,7.5L61.65,32.143l5.765,14.7.577-12.972.865,4.324,1.153-14.7L72.027,45.98,74.911,38.2l-.577,10.089,7.783-23.062L78.37,54.053l5.477-4.037-3.171,5.19,4.036-2.884L80.1,65.583l-16.72.288" transform="translate(14.885 5.951)" fill="#c6ff00"/>
        <path id="Trazado_115117" data-name="Trazado 115117" d="M81.6,85.929H63.57L58.716,54.7H86.454Z" transform="translate(14.873 13.854)" fill="#263238"/>
        <path id="Trazado_115118" data-name="Trazado 115118" d="M81.6,85.929H63.57L58.716,54.7H86.454Z" transform="translate(14.873 13.854)" fill="none" stroke="#263238" stroke-linecap="round" stroke-linejoin="round" stroke-width="1"/>
        <rect id="Rectángulo_46682" data-name="Rectángulo 46682" width="90.978" height="242.018" transform="translate(54.83 99.569)" fill="#fff"/>
        <rect id="Rectángulo_46683" data-name="Rectángulo 46683" width="90.978" height="242.018" transform="translate(54.83 99.569)" fill="none" stroke="#263238" stroke-linecap="round" stroke-linejoin="round" stroke-width="1"/>
        <rect id="Rectángulo_46684" data-name="Rectángulo 46684" width="79.495" height="58.296" transform="translate(60.129 107.519)" fill="none" stroke="#263238" stroke-linecap="round" stroke-linejoin="round" stroke-width="1"/>
        <rect id="Rectángulo_46685" data-name="Rectángulo 46685" width="31.799" height="10.599" transform="translate(83.978 131.367)" fill="#263238"/>
        <rect id="Rectángulo_46686" data-name="Rectángulo 46686" width="79.495" height="58.297" transform="translate(60.129 175.53)" fill="none" stroke="#263238" stroke-linecap="round" stroke-linejoin="round" stroke-width="1"/>
        <rect id="Rectángulo_46687" data-name="Rectángulo 46687" width="31.799" height="10.599" transform="translate(83.978 199.379)" fill="#263238"/>
        <rect id="Rectángulo_46688" data-name="Rectángulo 46688" width="79.495" height="58.296" transform="translate(60.129 243.543)" fill="none" stroke="#263238" stroke-linecap="round" stroke-linejoin="round" stroke-width="1"/>
        <rect id="Rectángulo_46689" data-name="Rectángulo 46689" width="31.799" height="10.599" transform="translate(83.978 267.392)" fill="#263238"/>
        <g id="Grupo_80892" data-name="Grupo 80892" transform="translate(0 57.223)">
          <g id="Grupo_80891" data-name="Grupo 80891" clip-path="url(#clip-path-9)">
            <path id="Trazado_115119" data-name="Trazado 115119" d="M133.643,265.915s45.595-20.138,70.108-21.658l17.817,39.516H86.555Z" transform="translate(21.924 4.646)" fill="#263238"/>
            <path id="Trazado_115120" data-name="Trazado 115120" d="M133.643,265.915s45.595-20.138,70.108-21.658l17.817,39.516H86.555Z" transform="translate(21.924 4.646)" fill="none" stroke="#263238" stroke-linecap="round" stroke-linejoin="round" stroke-width="0.75"/>
            <path id="Trazado_115121" data-name="Trazado 115121" d="M180.988,71.553s32.1,38.13,38.853,45.129,7,12.067,4.826,15.2-18.581,8.93-35.475,19.788-64.918,38.855-65.4,39.82-5.067-33.786-5.067-33.786l80.363-33.062-.242-2.413L172.783,73.967Z" transform="translate(30.073 -39.099)" fill="#fff"/>
          </g>
        </g>
        <g id="Grupo_80897" data-name="Grupo 80897" transform="translate(148.799 89.678)">
          <g id="Grupo_80896" data-name="Grupo 80896" clip-path="url(#clip-path-10)">
            <path id="Trazado_115122" data-name="Trazado 115122" d="M211.883,127.445,174.572,73.059l-1.788.526,26.064,48.266.241,2.413-80.361,33.062s.079.6.216,1.624l5.229,12.017Z" transform="translate(-118.726 -71.173)" fill="#feeaa9"/>
            <g id="Grupo_80895" data-name="Grupo 80895" transform="translate(0 1.886)" opacity="0.5">
              <g id="Grupo_80894" data-name="Grupo 80894">
                <g id="Grupo_80893" data-name="Grupo 80893" clip-path="url(#clip-path-11)">
                  <path id="Trazado_115123" data-name="Trazado 115123" d="M211.883,127.445,174.572,73.059l-1.788.526,26.064,48.266.241,2.413-80.361,33.062s.079.6.216,1.624l5.229,12.017Z" transform="translate(-118.726 -73.059)" fill="#feeaa9"/>
                </g>
              </g>
            </g>
          </g>
        </g>
        <g id="Grupo_80899" data-name="Grupo 80899" transform="translate(0 57.223)">
          <g id="Grupo_80898" data-name="Grupo 80898" clip-path="url(#clip-path-9)">
            <path id="Trazado_115125" data-name="Trazado 115125" d="M180.988,71.553s32.1,38.13,38.853,45.129,7,12.067,4.826,15.2-18.581,8.93-35.475,19.788-64.918,38.855-65.4,39.82-5.067-33.786-5.067-33.786l80.363-33.062-.242-2.413L172.783,73.967Z" transform="translate(30.073 -39.099)" fill="none" stroke="#263238" stroke-linecap="round" stroke-linejoin="round" stroke-width="0.75"/>
            <path id="Trazado_115126" data-name="Trazado 115126" d="M149.509,58.571s-3.861-3.379-5.791,0-2.172,8.93-.966,9.412,6.033-.242,6.758-1.689,0-7.723,0-7.723" transform="translate(35.971 -42.768)" fill="#fff"/>
            <path id="Trazado_115127" data-name="Trazado 115127" d="M149.509,58.571s-3.861-3.379-5.791,0-2.172,8.93-.966,9.412,6.033-.242,6.758-1.689S149.509,58.571,149.509,58.571Z" transform="translate(35.971 -42.768)" fill="none" stroke="#263238" stroke-linecap="round" stroke-linejoin="round" stroke-width="0.75"/>
            <path id="Trazado_115128" data-name="Trazado 115128" d="M155.124,57.534s-4.1-4.344-6.757-2.654-1.931,10.86-.966,11.584,6.758-1.207,7.482-2.414.241-6.516.241-6.516" transform="translate(37.114 -43.421)" fill="#fff"/>
            <path id="Trazado_115129" data-name="Trazado 115129" d="M155.124,57.534s-4.1-4.344-6.757-2.654-1.931,10.86-.966,11.584,6.758-1.207,7.482-2.414S155.124,57.534,155.124,57.534Z" transform="translate(37.114 -43.421)" fill="none" stroke="#263238" stroke-linecap="round" stroke-linejoin="round" stroke-width="0.75"/>
            <path id="Trazado_115130" data-name="Trazado 115130" d="M163.108,58.136s-3.62-5.068-7-5.068-5.791,12.067-4.586,13.032,9.17-.241,9.654-.965,1.93-7,1.93-7" transform="translate(38.3 -43.781)" fill="#fff"/>
            <path id="Trazado_115131" data-name="Trazado 115131" d="M163.108,58.136s-3.62-5.068-7-5.068-5.791,12.067-4.586,13.032,9.17-.241,9.654-.965S163.108,58.136,163.108,58.136Z" transform="translate(38.3 -43.781)" fill="none" stroke="#263238" stroke-linecap="round" stroke-linejoin="round" stroke-width="0.75"/>
            <path id="Trazado_115132" data-name="Trazado 115132" d="M169.069,66.348c0-1.448-.724-14-5.068-13.274s-8.928,10.86-8.688,12.549,13.756.724,13.756.724" transform="translate(39.338 -43.787)" fill="#fff"/>
            <path id="Trazado_115133" data-name="Trazado 115133" d="M169.069,66.348c0-1.448-.724-14-5.068-13.274s-8.928,10.86-8.688,12.549S169.069,66.348,169.069,66.348Z" transform="translate(39.338 -43.787)" fill="none" stroke="#263238" stroke-linecap="round" stroke-linejoin="round" stroke-width="0.75"/>
            <path id="Trazado_115134" data-name="Trazado 115134" d="M182.847,113.916s12.307,4.585,16.893,4.344" transform="translate(46.314 -28.369)" fill="#fff"/>
            <path id="Trazado_115135" data-name="Trazado 115135" d="M182.847,113.916s12.307,4.585,16.893,4.344" transform="translate(46.314 -28.369)" fill="none" stroke="#263238" stroke-linecap="round" stroke-linejoin="round" stroke-width="0.75"/>
            <path id="Trazado_115136" data-name="Trazado 115136" d="M112.052,314c13.111-2.215,29.9-11.219,34.9-22.582-3.8-19.664-8.5-47.363-8.5-64.3,0-28.477,7.481-44.646,4.1-63.952s-10.618-31.856-18.341-36.923c0,0-11.825,3.137-23.892,14.479s-22.685,30.89-26.788,49.473-9.653,75.777-9.653,90.74-1.082,33.544-1.082,33.544c14.452,0,28.9-.016,43.355.048a34.7,34.7,0,0,0,5.9-.524" transform="translate(15.905 -25.247)" fill="#fff"/>
          </g>
        </g>
        <g id="Grupo_80904" data-name="Grupo 80904" transform="translate(78.882 158.216)">
          <g id="Grupo_80903" data-name="Grupo 80903" clip-path="url(#clip-path-13)">
            <path id="Trazado_115137" data-name="Trazado 115137" d="M146.947,291.417c-7.342,6.235-40.407,18.444-45.236,19.516s-2.146-9.12,5.365-19.314-9.121,3.756-11.8,4.829S96.345,276.6,96.345,266.4,106,169.295,106,169.295l18.242-33.264,6.243-3.79a26.966,26.966,0,0,0-6.28-6s-11.825,3.137-23.892,14.479-22.685,30.89-26.788,49.473-9.653,75.778-9.653,90.74-1.082,33.544-1.082,33.544c14.452,0,28.9-.016,43.357.048a34.684,34.684,0,0,0,5.9-.524c13.111-2.215,29.9-11.219,34.9-22.582" transform="translate(-62.977 -126.24)" fill="#fcc618"/>
            <g id="Grupo_80902" data-name="Grupo 80902" transform="translate(-0.186 -0.001)" opacity="0.5">
              <g id="Grupo_80901" data-name="Grupo 80901">
                <g id="Grupo_80900" data-name="Grupo 80900" clip-path="url(#clip-path-14)">
                  <path id="Trazado_115138" data-name="Trazado 115138" d="M146.947,291.417c-7.342,6.235-40.407,18.444-45.236,19.516s-2.146-9.12,5.365-19.314-9.121,3.756-11.8,4.829S96.345,276.6,96.345,266.4,106,169.295,106,169.295l18.242-33.264,6.243-3.79a26.966,26.966,0,0,0-6.28-6s-11.825,3.137-23.892,14.479-22.685,30.89-26.788,49.473-9.653,75.778-9.653,90.74-1.082,33.544-1.082,33.544c14.452,0,28.9-.016,43.357.048a34.684,34.684,0,0,0,5.9-.524c13.111-2.215,29.9-11.219,34.9-22.582" transform="translate(-62.791 -126.239)" fill="#fcc618"/>
                </g>
              </g>
            </g>
          </g>
        </g>
        <g id="Grupo_80906" data-name="Grupo 80906" transform="translate(0 57.223)">
          <g id="Grupo_80905" data-name="Grupo 80905" clip-path="url(#clip-path-9)">
            <path id="Trazado_115140" data-name="Trazado 115140" d="M112.052,314c13.111-2.215,29.9-11.219,34.9-22.582-3.8-19.664-8.5-47.363-8.5-64.3,0-28.477,7.481-44.646,4.1-63.952s-10.618-31.856-18.341-36.923c0,0-11.825,3.137-23.892,14.479s-22.685,30.89-26.788,49.473-9.653,75.777-9.653,90.74-1.082,33.544-1.082,33.544c14.452,0,28.9-.016,43.355.048A34.7,34.7,0,0,0,112.052,314Z" transform="translate(15.905 -25.247)" fill="none" stroke="#263238" stroke-linecap="round" stroke-linejoin="round" stroke-width="0.75"/>
            <path id="Trazado_115141" data-name="Trazado 115141" d="M111.231,129.817l20.736,37.748,1.107,20.712s5.781-14.775,3.212-24.412-25.055-34.048-25.055-34.048" transform="translate(28.174 -24.341)" fill="#263238"/>
            <path id="Trazado_115142" data-name="Trazado 115142" d="M111.231,129.817l20.736,37.748,1.107,20.712s5.781-14.775,3.212-24.412S111.231,129.817,111.231,129.817Z" transform="translate(28.174 -24.341)" fill="none" stroke="#263238" stroke-linecap="round" stroke-linejoin="round" stroke-width="0.75"/>
            <path id="Trazado_115143" data-name="Trazado 115143" d="M129.827,176.982l-5.781,87.37,6.424,17.987,4.5-35.976-3.855-71.95Z" transform="translate(31.42 -13.045)" fill="#263238"/>
            <path id="Trazado_115144" data-name="Trazado 115144" d="M129.827,176.982l-5.781,87.37,6.424,17.987,4.5-35.976-3.855-71.95Z" transform="translate(31.42 -13.045)" fill="none" stroke="#263238" stroke-linecap="round" stroke-linejoin="round" stroke-width="0.75"/>
            <path id="Trazado_115145" data-name="Trazado 115145" d="M126.874,111.832s.724,9.412,1.448,14S117.7,143.2,117.7,143.2l16.411,24.857L152.7,153.582s26.305-1.93,28.718-4.1,2.414-26.064,2.414-26.064L190.1,119.8s-5.791-25.1-7.239-30.648L181.414,83.6s8.447-2.9,6.516-11.342S173.692,59.7,161.383,61.635s-15.444,6.516-15.444,6.516-17.376-.241-27.27,7.965-3.861,21.237-.724,25.822a72.252,72.252,0,0,0,8.93,9.895" transform="translate(28.681 -41.73)" fill="#fff"/>
          </g>
        </g>
        <g id="Grupo_80911" data-name="Grupo 80911" transform="translate(141.916 76.658)">
          <g id="Grupo_80910" data-name="Grupo 80910" clip-path="url(#clip-path-16)">
            <path id="Trazado_115146" data-name="Trazado 115146" d="M156,145.54c-4.829-5.9,0-28.435,3.756-39.7s-5.365-16.095-5.365-16.095l27.4-4.725-.371-1.421a12.134,12.134,0,0,0,4.8-3.393l1.479-8.708c-2.483-7.923-14.382-11.732-26.309-9.861-12.307,1.93-15.444,6.516-15.444,6.516s-17.376-.242-27.27,7.963-3.861,21.237-.724,25.823a72.291,72.291,0,0,0,8.93,9.894s.724,9.412,1.448,14S117.7,143.205,117.7,143.205l16.411,24.857L152.7,153.583s20.1-1.476,26.769-3.3l1.949-.806S160.826,151.442,156,145.54" transform="translate(-113.234 -61.165)" fill="#fcc618" opacity="0.37"/>
            <path id="Trazado_115148" data-name="Trazado 115148" d="M158.595,94.409s-.041-.373-.048-.963c-.023-1.867.306-5.9,3.427-7,4.1-1.449,7.481,2.413,7.481,2.413l.242,3.861a5.347,5.347,0,0,0-5.068-1.93c-3.379.483-6.033,3.62-6.033,3.62" transform="translate(-101.757 -54.844)" fill="#263238"/>
            <path id="Trazado_115149" data-name="Trazado 115149" d="M164.657,99.628c0,2-.54,3.62-1.207,3.62s-1.207-1.621-1.207-3.62.54-3.62,1.207-3.62,1.207,1.621,1.207,3.62" transform="translate(-100.82 -52.339)" fill="#263238"/>
            <path id="Trazado_115150" data-name="Trazado 115150" d="M159,119.962c-1.34,1.394-3.127,1.849-3.992,1.016s-.479-2.634.861-4.028,3.127-1.846,3.992-1.015.479,2.636-.861,4.027" transform="translate(-102.769 -47.397)" fill="#263238"/>
          </g>
        </g>
        <g id="Grupo_80913" data-name="Grupo 80913" transform="translate(0 57.223)">
          <g id="Grupo_80912" data-name="Grupo 80912" clip-path="url(#clip-path-9)">
            <path id="Trazado_115152" data-name="Trazado 115152" d="M126.874,111.832s.724,9.412,1.448,14S117.7,143.2,117.7,143.2l16.411,24.857L152.7,153.582s26.305-1.93,28.718-4.1,2.414-26.064,2.414-26.064L190.1,119.8s-5.791-25.1-7.239-30.648L181.414,83.6s8.447-2.9,6.516-11.342S173.692,59.7,161.383,61.635s-15.444,6.516-15.444,6.516-17.376-.241-27.27,7.965-3.861,21.237-.724,25.822A72.252,72.252,0,0,0,126.874,111.832Z" transform="translate(28.681 -41.73)" fill="none" stroke="#263238" stroke-linecap="round" stroke-linejoin="round" stroke-width="0.75"/>
            <path id="Trazado_115153" data-name="Trazado 115153" d="M150.042,88.181c4.344-2.9,31.372-4.583,31.372-4.583s8.447-2.9,6.516-11.345-14.239-12.547-26.546-10.618-15.444,6.517-15.444,6.517-17.376-.242-27.27,7.963-3.861,21.236-.724,25.823a72.287,72.287,0,0,0,8.93,9.894s.4,5.164.9,9.706l7.549,2.119,8.205-4.343,8.205-1.931s-6.033-4.585-2.654-8.93,9.653-5.791,9.895-9.17-13.274-8.2-8.93-11.1" transform="translate(28.682 -41.73)" fill="#263238"/>
            <path id="Trazado_115154" data-name="Trazado 115154" d="M150.042,88.181c4.344-2.9,31.372-4.583,31.372-4.583s8.447-2.9,6.516-11.345-14.239-12.547-26.546-10.618-15.444,6.517-15.444,6.517-17.376-.242-27.27,7.963-3.861,21.236-.724,25.823a72.287,72.287,0,0,0,8.93,9.894s.4,5.164.9,9.706l7.549,2.119,8.205-4.343,8.205-1.931s-6.033-4.585-2.654-8.93,9.653-5.791,9.895-9.17S145.7,91.079,150.042,88.181Z" transform="translate(28.682 -41.73)" fill="none" stroke="#263238" stroke-linecap="round" stroke-linejoin="round" stroke-width="0.75"/>
            <path id="Trazado_115155" data-name="Trazado 115155" d="M175.44,72.409s-2.83-5.189,2.359-4.245,5.189,9.9.944,11.792-27.358-2.359-40.094,1.415-21.7,14.151-21.7,14.151" transform="translate(29.623 -39.986)" fill="none" stroke="#fff" stroke-linecap="round" stroke-miterlimit="10" stroke-width="1"/>
            <path id="Trazado_115156" data-name="Trazado 115156" d="M122.6,98.533s9.906-8.491,17.925-9.906,12.263-1.415,3.3,3.774-2.83,4.245,2.83,2.359" transform="translate(31.053 -34.978)" fill="none" stroke="#fff" stroke-linecap="round" stroke-miterlimit="10" stroke-width="1"/>
            <path id="Trazado_115157" data-name="Trazado 115157" d="M142.234,114.393s-1.448-15.2-8.928-15.686-7.24,10.377-5.068,17.858,7.481,9.895,11.825,6.033" transform="translate(32.146 -32.225)" fill="#feeaa9"/>
          </g>
        </g>
        <g id="Grupo_80920" data-name="Grupo 80920" transform="translate(0 57.223)">
          <g id="Grupo_80919" data-name="Grupo 80919" clip-path="url(#clip-path-9)">
            <path id="Trazado_115161" data-name="Trazado 115161" d="M142.234,114.393s-1.448-15.2-8.928-15.686-7.24,10.377-5.068,17.858,7.481,9.895,11.825,6.033" transform="translate(32.146 -32.225)" fill="none" stroke="#263238" stroke-linecap="round" stroke-linejoin="round" stroke-width="0.75"/>
            <path id="Trazado_115162" data-name="Trazado 115162" d="M119.963,119.307,144.1,155.988l-11.1,14.239s-8.446-16.411-16.651-27.994-9.17-13.514-9.17-13.514Z" transform="translate(27.146 -27.003)" fill="#fff"/>
          </g>
        </g>
        <g id="Grupo_80925" data-name="Grupo 80925" transform="translate(134.319 149.527)">
          <g id="Grupo_80924" data-name="Grupo 80924" clip-path="url(#clip-path-19)">
            <path id="Trazado_115163" data-name="Trazado 115163" d="M119.963,119.307l-12.79,9.412s.716,1.421,5.981,8.976l13.511-8.2Z" transform="translate(-107.173 -119.307)" fill="#feeaa9"/>
            <g id="Grupo_80923" data-name="Grupo 80923" transform="translate(0 0)" opacity="0.5">
              <g id="Grupo_80922" data-name="Grupo 80922">
                <g id="Grupo_80921" data-name="Grupo 80921" clip-path="url(#clip-path-20)">
                  <path id="Trazado_115164" data-name="Trazado 115164" d="M119.963,119.307l-12.79,9.412s.716,1.421,5.981,8.976l13.511-8.2Z" transform="translate(-107.173 -119.307)" fill="#feeaa9"/>
                </g>
              </g>
            </g>
          </g>
        </g>
        <g id="Grupo_80927" data-name="Grupo 80927" transform="translate(0 57.223)">
          <g id="Grupo_80926" data-name="Grupo 80926" clip-path="url(#clip-path-9)">
            <path id="Trazado_115166" data-name="Trazado 115166" d="M119.963,119.307,144.1,155.988l-11.1,14.239s-8.446-16.411-16.651-27.994-9.17-13.514-9.17-13.514Z" transform="translate(27.146 -27.003)" fill="none" stroke="#263238" stroke-linecap="round" stroke-linejoin="round" stroke-width="0.75"/>
            <path id="Trazado_115167" data-name="Trazado 115167" d="M166.865,200.312s3.861-7.963,4.586-13.032.965-7.963,3.86-10.377,12.309-12.067,13.756-15.686,2.414-.242,3.137,2.654.484,5.551-1.93,7.24a27.111,27.111,0,0,0-4.586,4.344l2.172,1.689s30.167-11.342,33.3-12.549,6.033-.242,6.274,2.172-.723,2.654-2.172,3.379-17.376,6.274-19.548,7.239l-2.172.965,1.689,1.689s8.688-.241,13.032-.483,10.86-.965,11.826.483a3.02,3.02,0,0,1-.724,4.1c-1.207.965-1.689,1.207-3.861,1.207s-20.755,1.448-20.755,1.448l.483,2.654s19.79,3.137,20.514,4.1.723,1.449,0,2.9-1.207,1.448-3.138,1.448S205,195.486,205,195.486s7.723,4.344,8.688,5.068,4.344,1.206,3.379,2.9-1.449,2.172-2.9,1.931-11.825-4.826-11.825-4.826-10.377,1.448-13.756,1.688A47.3,47.3,0,0,1,181.1,202l-9.653,6.274Z" transform="translate(42.266 -16.786)" fill="#fff"/>
            <path id="Trazado_115168" data-name="Trazado 115168" d="M166.865,200.312s3.861-7.963,4.586-13.032.965-7.963,3.86-10.377,12.309-12.067,13.756-15.686,2.414-.242,3.137,2.654.484,5.551-1.93,7.24a27.111,27.111,0,0,0-4.586,4.344l2.172,1.689s30.167-11.342,33.3-12.549,6.033-.242,6.274,2.172-.723,2.654-2.172,3.379-17.376,6.274-19.548,7.239l-2.172.965,1.689,1.689s8.688-.241,13.032-.483,10.86-.965,11.826.483a3.02,3.02,0,0,1-.724,4.1c-1.207.965-1.689,1.207-3.861,1.207s-20.755,1.448-20.755,1.448l.483,2.654s19.79,3.137,20.514,4.1.723,1.449,0,2.9-1.207,1.448-3.138,1.448S205,195.486,205,195.486s7.723,4.344,8.688,5.068,4.344,1.206,3.379,2.9-1.449,2.172-2.9,1.931-11.825-4.826-11.825-4.826-10.377,1.448-13.756,1.688A47.3,47.3,0,0,1,181.1,202l-9.653,6.274Z" transform="translate(42.266 -16.786)" fill="none" stroke="#263238" stroke-linecap="round" stroke-linejoin="round" stroke-width="0.75"/>
            <path id="Trazado_115169" data-name="Trazado 115169" d="M120.422,192.065s-7-29.2-9.895-35.716S91.221,143.8,83.258,158.038s-.724,30.407,2.172,41.99,21.236,63.953,23.892,70.468,7.481,5.068,10.135,4.344,76.019-59.849,76.019-59.849l-5.791-13.032-56.955,29.2Z" transform="translate(20.172 -19.399)" fill="#fff"/>
          </g>
        </g>
        <g id="Grupo_80932" data-name="Grupo 80932" transform="translate(99.809 187.152)">
          <g id="Grupo_80931" data-name="Grupo 80931" clip-path="url(#clip-path-22)">
            <path id="Trazado_115170" data-name="Trazado 115170" d="M118.368,256.262s3.755-11.267,6.438-16.633-12.876,12.34-16.1,2.683S85.1,184.369,88.859,168.274a30.479,30.479,0,0,1,12.252-18.469c-5.974-1.421-13.3.083-17.853,8.232-7.965,14.237-.724,30.406,2.172,41.99s21.237,63.952,23.892,70.468,7.481,5.068,10.135,4.344c1.933-.526,41.35-32.013,62.641-49.1Z" transform="translate(-79.637 -149.327)" fill="#feeaa9"/>
            <g id="Grupo_80930" data-name="Grupo 80930" transform="translate(0 0.005)" opacity="0.5">
              <g id="Grupo_80929" data-name="Grupo 80929">
                <g id="Grupo_80928" data-name="Grupo 80928" clip-path="url(#clip-path-23)">
                  <path id="Trazado_115171" data-name="Trazado 115171" d="M118.368,256.262s3.755-11.267,6.438-16.633-12.876,12.34-16.1,2.683S85.1,184.369,88.859,168.274a30.479,30.479,0,0,1,12.252-18.469c-5.974-1.421-13.3.083-17.853,8.232-7.965,14.237-.724,30.406,2.172,41.99s21.237,63.952,23.892,70.468,7.481,5.068,10.135,4.344c1.933-.526,41.35-32.013,62.641-49.1Z" transform="translate(-79.637 -149.332)" fill="#feeaa9"/>
                </g>
              </g>
            </g>
          </g>
        </g>
        <g id="Grupo_80934" data-name="Grupo 80934" transform="translate(0 57.223)">
          <g id="Grupo_80933" data-name="Grupo 80933" clip-path="url(#clip-path-9)">
            <path id="Trazado_115173" data-name="Trazado 115173" d="M120.422,192.065s-7-29.2-9.895-35.716S91.221,143.8,83.258,158.038s-.724,30.407,2.172,41.99,21.236,63.953,23.892,70.468,7.481,5.068,10.135,4.344,76.019-59.849,76.019-59.849l-5.791-13.032-56.955,29.2Z" transform="translate(20.172 -19.399)" fill="none" stroke="#263238" stroke-linecap="round" stroke-linejoin="round" stroke-width="0.75"/>
            <line id="Línea_242" data-name="Línea 242" x2="6.516" y2="13.272" transform="translate(201.408 187.388)" fill="#fff"/>
            <line id="Línea_243" data-name="Línea 243" x2="6.516" y2="13.272" transform="translate(201.408 187.388)" fill="none" stroke="#263238" stroke-linecap="round" stroke-linejoin="round" stroke-width="0.75"/>
            <path id="Trazado_115174" data-name="Trazado 115174" d="M45.292,142.049,11.958,165.175s16.427,17.362,14.731,62.939c-1.3,34.8,3.346,74.322,10.044,82.357H72.22s-12.267-67.635-11.384-106.46c.671-29.461-8.18-49.91-15.545-61.962" transform="translate(3.029 -21.243)" fill="#fff"/>
            <path id="Trazado_115175" data-name="Trazado 115175" d="M45.292,142.049,11.958,165.175s16.427,17.362,14.731,62.939c-1.3,34.8,3.346,74.322,10.044,82.357H72.22s-12.267-67.635-11.384-106.46C61.507,174.549,52.656,154.1,45.292,142.049Z" transform="translate(3.029 -21.243)" fill="none" stroke="#263238" stroke-linecap="round" stroke-linejoin="round" stroke-width="0.75"/>
            <path id="Trazado_115176" data-name="Trazado 115176" d="M48.487,142.049,15.153,165.175s16.427,17.362,14.73,62.939c-1.295,34.8,3.348,74.322,10.044,82.357H75.415s-12.267-67.635-11.384-106.46c.671-29.461-8.18-49.91-15.545-61.962" transform="translate(3.838 -21.243)" fill="#263238"/>
            <path id="Trazado_115177" data-name="Trazado 115177" d="M48.487,142.049,15.153,165.175s16.427,17.362,14.73,62.939c-1.295,34.8,3.348,74.322,10.044,82.357H75.415s-12.267-67.635-11.384-106.46C64.7,174.549,55.851,154.1,48.487,142.049Z" transform="translate(3.838 -21.243)" fill="none" stroke="#263238" stroke-linecap="round" stroke-linejoin="round" stroke-width="0.75"/>
            <path id="Trazado_115178" data-name="Trazado 115178" d="M45.291,142.049h4L15.963,165.175h-4Z" transform="translate(3.029 -21.243)" fill="#fff"/>
            <path id="Trazado_115179" data-name="Trazado 115179" d="M45.291,142.049h4L15.963,165.175h-4Z" transform="translate(3.029 -21.243)" fill="none" stroke="#263238" stroke-linecap="round" stroke-linejoin="round" stroke-width="0.75"/>
          </g>
        </g>
      </g>
    </g>
  </g>
</svg>
